<svg width="59" height="54" viewBox="0 0 59 54" fill="none" xmlns="http://www.w3.org/2000/svg">
<path d="M9.83334 42.75V38.25H14.75V22.5C14.75 19.3875 15.7743 16.6312 17.8229 14.2312C19.8715 11.7937 22.5347 10.2 25.8125 9.45V7.875C25.8125 6.9375 26.1608 6.15 26.8573 5.5125C27.5948 4.8375 28.4757 4.5 29.5 4.5C30.5243 4.5 31.3847 4.8375 32.0813 5.5125C32.8188 6.15 33.1875 6.9375 33.1875 7.875V9.45C36.4653 10.2 39.1285 11.7937 41.1771 14.2312C43.2257 16.6312 44.25 19.3875 44.25 22.5V38.25H49.1667V42.75H9.83334ZM29.5 49.5C28.1479 49.5 26.9802 49.0687 25.9969 48.2062C25.0545 47.3062 24.5833 46.2375 24.5833 45H34.4167C34.4167 46.2375 33.925 47.3062 32.9417 48.2062C31.9993 49.0687 30.8521 49.5 29.5 49.5ZM19.6667 38.25H39.3333V22.5C39.3333 20.025 38.3705 17.9062 36.4448 16.1437C34.5191 14.3812 32.2042 13.5 29.5 13.5C26.7958 13.5 24.4809 14.3812 22.5552 16.1437C20.6295 17.9062 19.6667 20.025 19.6667 22.5V38.25Z" fill="#1D1B20"/>
</svg>
